# xmcd
#
# Track frame offsets:
# 172
# 21360
# 45155
# 64437
# 86917
# 106162
# 122787
# 140680
# 168987
# 193440
#
# Disc length: 2826 seconds
#
#
# Revision: 1
# Processed by: cddbd v1.4PL0 Copyright (c) Steve Scherf et al.
# Submitted via: FreeRIP 2.30 
#
DISCID=910b080a
DTITLE=El Fish - Waterbottle
DYEAR=1900
DGENRE=
TTITLE0=Tengah
TTITLE1=The end is not in sight
TTITLE2=Canzoncina per Jaco
TTITLE3=Lack of time
TTITLE4=As bad can be
TTITLE5=I've seen that face before
TTITLE6=This or that
TTITLE7=Mustallah
TTITLE8=Bad Tattoo
TTITLE9=The Chinaman in the desert
EXTD=
EXTT0=
EXTT1=
EXTT2=
EXTT3=
EXTT4=
EXTT5=
EXTT6=
EXTT7=
EXTT8=
EXTT9=
PLAYORDER=
